<svg xmlns="http://www.w3.org/2000/svg" width="169" height="78" viewBox="0 0 169 78"><g><g><path fill="#f3f8ff" d="M158.807 58.144c-.11 0-.218.014-.328.017-1.433-7.06-7.423-12.463-14.767-13.01-2.563-12.272-13.44-21.49-26.472-21.49a27.11 27.11 0 0 0-6.312.748C105.188 10.106 91.2 0 74.845 0 64.468 0 55.049 4.074 48.077 10.7a17.877 17.877 0 0 0-7.166-1.492c-8.81 0-16.132 6.35-17.652 14.722C10.116 25.772 0 37.055 0 50.706c0 14.937 12.109 27.046 27.045 27.046h131.762c5.414 0 9.803-4.39 9.803-9.803 0-5.415-4.389-9.805-9.803-9.805"/></g></g></svg>