<svg xmlns="http://www.w3.org/2000/svg" width="106" height="106" viewBox="0 0 106 106"><defs><linearGradient id="fglyb" x1="70" x2="36" y1="70" y2="36" gradientUnits="userSpaceOnUse"><stop offset="0" stop-color="#1bcedf" stop-opacity=".3"/><stop offset="1" stop-color="#5b247a" stop-opacity=".3"/></linearGradient><filter id="fglya" width="316%" height="316%" x="-98%" y="-98%" filterUnits="objectBoundingBox"><feGaussianBlur in="SourceGraphic" result="FeGaussianBlur1435Out" stdDeviation="15 15"/></filter><linearGradient id="fglyc" x1="29" x2="77" y1="22" y2="70" gradientUnits="userSpaceOnUse"><stop offset="0" stop-color="#43e695"/><stop offset="1" stop-color="#3bb2b8"/></linearGradient></defs><g><g><g filter="url(#fglya)"><path fill="url(#fglyb)" d="M36 38a2 2 0 0 1 2-2h30a2 2 0 0 1 2 2v30a2 2 0 0 1-2 2H38a2 2 0 0 1-2-2z"/><path fill="#fff" fill-opacity=".05" d="M36 38a2 2 0 0 1 2-2h30a2 2 0 0 1 2 2v30a2 2 0 0 1-2 2H38a2 2 0 0 1-2-2z"/></g><g><path fill="url(#fglyc)" d="M29 26a4 4 0 0 1 4-4h40a4 4 0 0 1 4 4v40a4 4 0 0 1-4 4H33a4 4 0 0 1-4-4z"/></g><g transform="rotate(-45 52.5 47.5)"><g><path fill="#fff" d="M42.567 35.56h13.98c1.11 0 2.013.986 2.013 2.197v1.803H42.386c-.992 0-1.79-.846-1.826-1.93.06-1.162.94-2.07 2.007-2.07z"/></g><g><path fill="#fff" d="M58.56 50.527a2.32 2.32 0 0 1-2.32-2.314 2.321 2.321 0 0 1 4.639 0 2.318 2.318 0 0 1-2.32 2.314zm3.886-10.219h-2.224c-.084 0-.168.007-.25.018-.018.002-.036.002-.053.002-.029 0-.055-.009-.084-.016-.016-.001-.033.003-.049-.004H42.483c-.095 0-.187-.004-.28-.013-.03-.002-.06-.009-.09-.01-.063-.01-.123-.017-.182-.03-.036-.007-.07-.017-.104-.024-.055-.014-.108-.024-.16-.04-.037-.01-.072-.026-.11-.037-.046-.018-.095-.033-.143-.051-.036-.015-.071-.033-.107-.049-.046-.02-.09-.04-.132-.064-.036-.017-.071-.037-.107-.057-.04-.024-.081-.048-.12-.073-.036-.022-.068-.046-.103-.07-.037-.027-.075-.053-.112-.084l-.093-.077-.08-.069v13.888c0 1.165.949 2.112 2.114 2.112h19.772a2.115 2.115 0 0 0 2.114-2.112V42.42a2.114 2.114 0 0 0-2.114-2.112z"/></g></g></g></g></svg>