<svg xmlns="http://www.w3.org/2000/svg" width="106" height="106" viewBox="0 0 106 106"><defs><linearGradient id="toreb" x1="36" x2="70" y1="36" y2="70" gradientUnits="userSpaceOnUse"><stop offset="0" stop-color="#fce38a" stop-opacity=".3"/><stop offset="1" stop-color="#f38181" stop-opacity=".3"/></linearGradient><filter id="torea" width="316%" height="316%" x="-98%" y="-98%" filterUnits="objectBoundingBox"><feGaussianBlur in="SourceGraphic" result="FeGaussianBlur1366Out" stdDeviation="15 15"/></filter><linearGradient id="torec" x1="72.85" x2="29" y1="70" y2="32.32" gradientUnits="userSpaceOnUse"><stop offset="0" stop-color="#fce38a"/><stop offset="1" stop-color="#f38181"/></linearGradient><clipPath id="tored"><path d="M54.06 30.04h-9v31h18v-31z"/></clipPath></defs><g><g><g filter="url(#torea)"><path fill="url(#toreb)" d="M36 38a2 2 0 0 1 2-2h30a2 2 0 0 1 2 2v30a2 2 0 0 1-2 2H38a2 2 0 0 1-2-2z"/><path fill-opacity=".05" d="M36 38a2 2 0 0 1 2-2h30a2 2 0 0 1 2 2v30a2 2 0 0 1-2 2H38a2 2 0 0 1-2-2z"/></g><g><path fill="url(#torec)" d="M29 26a4 4 0 0 1 4-4h40a4 4 0 0 1 4 4v40a4 4 0 0 1-4 4H33a4 4 0 0 1-4-4z"/></g></g><g transform="rotate(42 54.5 45)"><g/><g clip-path="url(#tored)"><path fill="#fff" d="M54.272 43.33a2.502 2.502 0 0 1-2.502-2.498 2.499 2.499 0 1 1 5 0 2.498 2.498 0 0 1-2.498 2.498zm5.685 6.525v-3.808c0-8.5-3.523-13.638-4.997-15.41a.834.834 0 0 0-1.283-.01c-1.497 1.773-5.09 6.911-5.09 15.42v3.813l-.692.47a4.964 4.964 0 0 0-2.125 4.083v4.55c0 .268.148.517.378.645a.7.7 0 0 0 .735-.037l2.24-1.523a3.792 3.792 0 0 1 2.124-.655h1.644v2.206c0 .405.324.731.721.731h1.316c.397 0 .72-.326.72-.731v-2.206h1.644c.758 0 1.497.225 2.125.655l2.24 1.523a.7.7 0 0 0 .735.037.733.733 0 0 0 .378-.645v-4.55a4.97 4.97 0 0 0-2.125-4.082z"/></g></g></g></svg>