<svg xmlns="http://www.w3.org/2000/svg" width="106" height="106" viewBox="0 0 106 106"><defs><linearGradient id="t3wpb" x1="70" x2="36" y1="70" y2="36" gradientUnits="userSpaceOnUse"><stop offset="0" stop-color="#1bcedf" stop-opacity=".3"/><stop offset="1" stop-color="#5b247a" stop-opacity=".3"/></linearGradient><filter id="t3wpa" width="316%" height="316%" x="-98%" y="-98%" filterUnits="objectBoundingBox"><feGaussianBlur in="SourceGraphic" result="FeGaussianBlur1402Out" stdDeviation="15 15"/></filter><linearGradient id="t3wpc" x1="77" x2="29" y1="70" y2="22" gradientUnits="userSpaceOnUse"><stop offset="0" stop-color="#17ead9" stop-opacity=".1"/><stop offset=".34" stop-color="#22d9db"/><stop offset="1" stop-color="#6078ea"/></linearGradient></defs><g><g><g filter="url(#t3wpa)"><path fill="url(#t3wpb)" d="M36 38a2 2 0 0 1 2-2h30a2 2 0 0 1 2 2v30a2 2 0 0 1-2 2H38a2 2 0 0 1-2-2z"/><path fill="#fff" fill-opacity=".05" d="M36 38a2 2 0 0 1 2-2h30a2 2 0 0 1 2 2v30a2 2 0 0 1-2 2H38a2 2 0 0 1-2-2z"/></g><g><path fill="url(#t3wpc)" d="M29 26a4 4 0 0 1 4-4h40a4 4 0 0 1 4 4v40a4 4 0 0 1-4 4H33a4 4 0 0 1-4-4z"/></g></g><g><g transform="rotate(90 54.5 44.5)"><path fill="#fff" d="M41.87 35.17a3 3 0 0 1 3-3h11.462a3 3 0 0 1 2.121 5.121l-3.436 3.436 10.277 10.277a3 3 0 0 1-4.242 4.242L50.775 44.97l-3.784 3.783a3 3 0 0 1-5.121-2.122z"/></g></g></g></svg>